# xmcd
#
# Track frame offsets:
#	150
#	22465
#	47317
#	74497
#	137110
#
# Disc length: 2185 seconds
#
# Revision: 3
# Processed by: cddbd v1.5.2PL0 Copyright (c) Steve Scherf et al.
# Submitted via: audiograbber 1.83.01
#
DISCID=47088705
DTITLE=Coltrane, John - Lush life
DYEAR=1958
DGENRE=Jazz
TTITLE0=Like someone in love
TTITLE1=I love you
TTITLE2=Trane's slo blues
TTITLE3=Lush life
TTITLE4=I hear a rhapsody
EXTD=
EXTT0=
EXTT1=
EXTT2=
EXTT3=
EXTT4=
PLAYORDER=
